<svg width="72" height="72" viewBox="0 0 72 72" fill="none" xmlns="http://www.w3.org/2000/svg">
    <path fill-rule="evenodd" clip-rule="evenodd" d="M34.401 43.4011V43.4011C30.12 43.4011 26.652 39.9301 26.652 35.6521V33.1501C26.652 28.8691 30.123 25.4011 34.401 25.4011V25.4011C38.682 25.4011 42.15 28.8721 42.15 33.1501V35.6491C42.15 39.9301 38.682 43.4011 34.401 43.4011Z" stroke="#3E5462" stroke-width="3" stroke-linecap="round" stroke-linejoin="round"/>
    <path d="M56.802 34.4011C56.802 46.7731 46.773 56.8021 34.401 56.8021C22.029 56.8021 12 46.7731 12 34.4011C12 22.0291 22.029 12.0001 34.401 12.0001C46.773 12.0001 56.802 22.0291 56.802 34.4011" stroke="#3E5462" stroke-width="3" stroke-linecap="round" stroke-linejoin="round"/>
    <path d="M46.4998 43.5029L44.3998 40.4039L42.0088 38.7599" stroke="#3E5462" stroke-width="3" stroke-linecap="round" stroke-linejoin="round"/>
    <path d="M19.4092 34.4122H49.4092" stroke="#3E5462" stroke-width="3" stroke-linecap="round" stroke-linejoin="round"/>
    <path d="M22.3008 43.5029L24.4008 40.4039L26.7918 38.7599" stroke="#3E5462" stroke-width="3" stroke-linecap="round" stroke-linejoin="round"/>
    <path d="M22.3008 25.3009L24.4008 28.3999L26.7918 30.0439" stroke="#3E5462" stroke-width="3" stroke-linecap="round" stroke-linejoin="round"/>
    <path d="M46.4998 25.3009L44.3998 28.3999L42.0088 30.0439" stroke="#3E5462" stroke-width="3" stroke-linecap="round" stroke-linejoin="round"/>
    <path d="M60 60.0001L50.25 50.2501" stroke="#3E5462" stroke-width="3" stroke-linecap="round" stroke-linejoin="round"/>
</svg>
