<svg version="1.1" id="Layer_1"
     xmlns="http://www.w3.org/2000/svg"
     xmlns:xlink="http://www.w3.org/1999/xlink" x="0px"
     y="0px" style="enable-background:new 0 0 3000 3000;" xml:space="preserve" viewBox="1024.3 1165.6 1337.2 768.8">
	<style
            type="text/css">  .st0{fill:#3E5464;}  .st1{fill:#FF5E00;} </style>
    <g>
		<path class="st0"
              d="M1024.3,1411.7v-242.9h76.3c77,0,125.3,35,125.3,118.3c0,79.5-47.9,124.6-115.5,124.6H1024.3z M1175.9,1286.7  c0-53.8-26-72.2-75.3-72.2h-26.4v151.6h34.7C1153,1366.2,1175.9,1336,1175.9,1286.7z"/>
        <path class="st0" d="M1267.5,1411.7v-40.9h30.2v-160.6h-30.2v-41.3h110v41.3h-30.2v160.6h30.2v40.9H1267.5z"/>
        <path class="st0"
              d="M1546.1,1414.8c-69.4,0-123.5-55.5-123.5-124.6c0-68.4,54.8-124.6,123.5-124.6c38.9,0,69.4,15.6,93,43  l-36.8,31.9c-13.5-16-34-27.4-56.6-27.4c-41.3,0-73.2,33.7-73.2,77c0,44.1,33.3,77.4,73.2,77.4c17.7,0,37.1-5.2,49.6-17.7v-30.2  h-48.6v-42h94.7v91.6C1618.3,1397.1,1587.7,1414.8,1546.1,1414.8z"/>
        <path class="st0" d="M1693.6,1411.7v-40.9h30.2v-160.6h-30.2v-41.3h110v41.3h-30.2v160.6h30.2v40.9H1693.6z"/>
        <path class="st0" d="M1884.7,1411.7v-197.1h-46.5v-45.8h143v45.8h-46.5v197.1H1884.7z"/>
        <path class="st0"
              d="M2125.9,1354.1H2053l-17,57.6h-52.7l78.4-242.9h55.2l78.4,242.9h-52.7L2125.9,1354.1z M2064.5,1315.2h50  l-7.3-26c-6.6-23.9-14.9-52.4-17.7-68c-3.1,19.1-10.4,44.4-17.3,68L2064.5,1315.2z"/>
        <path class="st0" d="M2226.5,1411.7v-242.9h49.3v197.8h85.7v45.1H2226.5z"/>
        <path class="st0"
              d="M1161.1,1749.7c-69.4,0-123.5-55.9-123.5-124.9c0-68.4,54.8-124.6,123.5-124.6c38.9,0,69.4,15.6,93,43  l-36.8,31.9c-15.3-16-34-27.4-56.6-27.4c-41.3,0-73.2,33.7-73.2,77c0,44.1,31.9,77.4,73.2,77.4c22.9,0,42-11.8,57.6-28.8  l38.2,30.5C1233.3,1731.7,1202.8,1749.7,1161.1,1749.7z"/>
        <path class="st0"
              d="M1423.4,1688.6h-72.9l-17,57.6h-52.7l78.4-242.9h55.2l78.4,242.9h-52.7L1423.4,1688.6z M1362,1649.8h50  l-7.3-26c-6.6-23.9-14.9-52.4-17.7-68c-3.1,19.1-10.4,44.4-17.3,68L1362,1649.8z"/>
        <path class="st0"
              d="M1702.4,1746.2h-46.8v-53.1l-68.7-94.4c-5.6-7.6-11.1-18-11.1-18s1,11.8,1,21.2v144.3H1531v-242.9h45.5  l70.4,101c4.2,6.6,8.3,14.2,9.4,16c0-1-0.7-10.8-0.7-18.7v-98.2h46.8V1746.2z"/>
        <path class="st0"
              d="M1899.8,1503.3h52.7l-78.4,242.9H1819l-78.4-242.9h52.7l36.1,122.5c6.6,23.6,14.2,48.9,17.3,68  c3.1-19.1,10.8-44.1,17.7-68L1899.8,1503.3z"/>
        <path class="st0"
              d="M2091.7,1688.6h-72.9l-17,57.6h-52.7l78.4-242.9h55.2l78.4,242.9h-52.7L2091.7,1688.6z M2030.3,1649.8h50  l-7.3-26c-6.6-23.9-14.9-52.4-17.7-68c-3.1,19.1-10.4,44.4-17.3,68L2030.3,1649.8z"/>
        <path class="st0"
              d="M2175,1702.9l39.9-28.5c9.7,19.1,25,29.1,42.7,29.1c16,0,27.1-10.8,27.1-25.7c0-36.1-93.7-50-93.7-115.5  c0-36.8,31.2-62.5,65.6-62.5c27.4,0,47.5,12.5,60.4,32.3l-33.3,29.5c-6.2-9.4-14.9-16.7-25-16.7s-17.7,7.3-17.7,17.7  c0,30.5,93.3,46.1,93.3,114.5c0,41.6-31.9,72.2-77,72.2C2222.9,1749.3,2191.3,1735.1,2175,1702.9z"/>
	</g>
    <g>
		<path class="st0"
              d="M1050.3,1933v-97.6h30.7c31,0,50.3,14.1,50.3,47.5c0,31.9-19.2,50.1-46.4,50.1H1050.3z M1111.3,1882.8  c0-21.6-10.5-29-30.3-29h-10.6v60.9h13.9C1102.1,1914.7,1111.3,1902.6,1111.3,1882.8z"/>
        <path class="st0" d="M1181.5,1933v-97.6h59.4v17.7h-39.6v19.5h27.7v17.6h-27.7v25.1h39.6v17.7H1181.5z"/>
        <path class="st0"
              d="M1348.1,1835.4h21.2l-31.5,97.6h-22.2l-31.5-97.6h21.2l14.5,49.2c2.6,9.5,5.7,19.7,7,27.3  c1.3-7.7,4.3-17.7,7.1-27.3L1348.1,1835.4z"/>
        <path class="st0" d="M1415.3,1933v-97.6h59.4v17.7h-39.6v19.5h27.7v17.6h-27.7v25.1h39.6v17.7H1415.3z"/>
        <path class="st0" d="M1524.9,1933v-97.6h19.8v79.5h34.4v18.1H1524.9z"/>
        <path class="st0"
              d="M1614.2,1884.2c0-27.5,22.4-50.1,50.2-50.1c27.5,0,50.1,22.6,50.1,50.1c0,27.7-22.6,50.2-50.1,50.2  C1636.7,1934.3,1614.2,1911.9,1614.2,1884.2z M1693.8,1884.2c0-18.4-12.5-31.4-29.4-31.4c-17,0-29.6,13.1-29.6,31.4  c0,18.5,12.5,31.5,29.6,31.5C1681.3,1915.7,1693.8,1902.6,1693.8,1884.2z"/>
        <path class="st0"
              d="M1764.6,1933v-97.6h35.5c19.2,0,31.5,12.4,31.5,32.1c0,19.7-12.3,31.9-31.5,31.9h-15.8v33.6H1764.6z   M1812.6,1867.4c0-8.9-5.7-13.9-15.5-13.9h-12.7v27.7h12.7C1806.8,1881.2,1812.6,1876.3,1812.6,1867.4z"/>
        <path class="st0"
              d="M1996.5,1933h-21.3l-6.1-55.1c-1-7.7-1.1-15.2-1.1-16c-0.3,1.4-1.7,8.5-3.5,15.5l-18,55.6h-17.3l-18.1-55.5  c-2-6.8-3.3-13.9-3.6-15.6c0,0.8-0.1,8.5-0.8,16l-6.1,55.1h-21.3l13.5-97.6h24.5l18.5,58.7c1,3.8,1.8,8.6,2,9.5  c0.1-0.7,0.8-5.6,2-9.3l18.8-58.8h24.5L1996.5,1933z"/>
        <path class="st0" d="M2048,1933v-97.6h59.4v17.7h-39.6v19.5h27.7v17.6h-27.7v25.1h39.6v17.7H2048z"/>
        <path class="st0"
              d="M2229.3,1933h-18.8v-21.3l-27.6-37.9c-2.2-3.1-4.5-7.3-4.5-7.3s0.4,4.7,0.4,8.5v58h-18.4v-97.6h18.3  l28.3,40.6c1.7,2.7,3.3,5.7,3.8,6.4c0-0.4-0.3-4.3-0.3-7.5v-39.5h18.8V1933z"/>
        <path class="st0" d="M2295.4,1933v-79.2h-18.7v-18.4h57.4v18.4h-18.7v79.2H2295.4z"/>
	</g>
</svg>