<svg width="36" height="36" viewBox="0 0 36 36" fill="none" xmlns="http://www.w3.org/2000/svg">
    <circle cx="18" cy="18" r="18" fill="#3E5462"/>
    <path d="M18.8282 23V19.993C18.8282 18.1049 19.2563 16.5664 20.1127 15.3776C20.9915 14.1655 22.2873 13.373 24 13V15.2378C23.2338 15.4242 22.6141 15.7739 22.1408 16.2867C21.6676 16.7995 21.3746 17.4056 21.262 18.1049H23.3239V23H18.8282ZM12 23V19.993C12 18.1049 12.4282 16.5664 13.2845 15.3776C14.1634 14.1655 15.4479 13.373 17.138 13V15.2378C16.3718 15.4242 15.7521 15.7739 15.2789 16.2867C14.8282 16.7995 14.5352 17.4056 14.4 18.1049H16.462V23H12Z" fill="white"/>
</svg>
