<svg width="72" height="72" viewBox="0 0 72 72" fill="none" xmlns="http://www.w3.org/2000/svg">
    <path d="M45.0005 45.57H27.0005" stroke="#3E5462" stroke-width="3" stroke-linecap="round" stroke-linejoin="round"/>
    <path fill-rule="evenodd" clip-rule="evenodd" d="M25.6233 44.688C20.2953 40.923 17.1003 34.35 18.2253 27.114C19.4433 19.293 25.9623 13.05 33.8253 12.129C44.7393 10.848 54.0003 19.344 54.0003 30C54.0003 36.075 50.9823 41.436 46.3713 44.694C45.5433 45.279 45.0003 46.185 45.0003 47.199V55.5C45.0003 59.643 41.6433 63 37.5003 63H34.5003C30.3573 63 27.0003 59.643 27.0003 55.5V47.211C27.0003 46.188 26.4543 45.276 25.6233 44.688Z" stroke="#3E5462" stroke-width="3" stroke-linecap="round" stroke-linejoin="round"/>
    <path d="M60.0005 15L63.5705 11.43" stroke="#3E5462" stroke-width="3" stroke-linecap="round" stroke-linejoin="round"/>
    <path d="M12.0007 45L8.43066 48.57" stroke="#3E5462" stroke-width="3" stroke-linecap="round" stroke-linejoin="round"/>
    <path d="M15.0007 12L11.4307 8.42999" stroke="#3E5462" stroke-width="3" stroke-linecap="round" stroke-linejoin="round"/>
    <path d="M60.0005 45L63.5705 48.57" stroke="#3E5462" stroke-width="3" stroke-linecap="round" stroke-linejoin="round"/>
    <path d="M63.0005 30H68.0705" stroke="#3E5462" stroke-width="3" stroke-linecap="round" stroke-linejoin="round"/>
    <path d="M3.93066 30H9.00066" stroke="#3E5462" stroke-width="3" stroke-linecap="round" stroke-linejoin="round"/>
    <path d="M27.0005 54H44.6105" stroke="#3E5462" stroke-width="3" stroke-linecap="round" stroke-linejoin="round"/>
</svg>
