<svg width="72" height="72" viewBox="0 0 72 72" fill="none" xmlns="http://www.w3.org/2000/svg">
    <path d="M62.3778 28.5706C64.7478 30.9407 64.7478 34.7833 62.3778 37.1534C60.0077 39.5235 56.165 39.5235 53.7949 37.1534C51.4248 34.7833 51.4248 30.9406 53.7949 28.5706C56.165 26.2005 60.0077 26.2005 62.3778 28.5706" stroke="#3E5462" stroke-width="3" stroke-linecap="round" stroke-linejoin="round"/>
    <path d="M42.6079 17.7371C46.2574 21.3865 46.2574 27.3034 42.6079 30.9529C38.9585 34.6024 33.0416 34.6024 29.3921 30.9529C25.7427 27.3035 25.7427 21.3866 29.3921 17.7371C33.0415 14.0876 38.9585 14.0876 42.6079 17.7371" stroke="#3E5462" stroke-width="3" stroke-linecap="round" stroke-linejoin="round"/>
    <path d="M18.2054 28.5706C20.5755 30.9407 20.5755 34.7833 18.2054 37.1534C15.8353 39.5235 11.9926 39.5235 9.62254 37.1534C7.25245 34.7833 7.25245 30.9406 9.62254 28.5706C11.9926 26.2005 15.8353 26.2005 18.2054 28.5706" stroke="#3E5462" stroke-width="3" stroke-linecap="round" stroke-linejoin="round"/>
    <path d="M68.9999 57V53.712C68.9999 49.569 65.6429 46.212 61.4999 46.212H59.0969" stroke="#3E5462" stroke-width="3" stroke-linecap="round" stroke-linejoin="round"/>
    <path d="M3 57V53.712C3 49.569 6.357 46.212 10.5 46.212H12.903" stroke="#3E5462" stroke-width="3" stroke-linecap="round" stroke-linejoin="round"/>
    <path d="M52.0167 57V52.197C52.0167 46.398 47.3157 41.697 41.5167 41.697H30.4797C24.6807 41.697 19.9797 46.398 19.9797 52.197V57" stroke="#3E5462" stroke-width="3" stroke-linecap="round" stroke-linejoin="round"/>
</svg>
